<svg aria-hidden="true" style="position: absolute; width: 0; height: 0; overflow: hidden;" version="1.1" xmlns="http://www.w3.org/2000/svg" xmlns:xlink="http://www.w3.org/1999/xlink">
<defs>
<symbol id="icon-close" viewBox="0 0 32 32">
<path d="M32 3.223l-3.223-3.223-12.777 12.777-12.777-12.777-3.223 3.223 12.777 12.777-12.777 12.777 3.223 3.223 12.777-12.777 12.777 12.777 3.223-3.223-12.777-12.777 12.777-12.777z"></path>
</symbol>
<symbol id="icon-email" viewBox="0 0 24 32">
<path d="M20 8h-16c-1.1 0-1.99 0.9-1.99 2l-0.010 12c0 1.1 0.9 2 2 2h16c1.1 0 2-0.9 2-2v-12c0-1.1-0.9-2-2-2zM19.6 12.25l-7.070 4.42c-0.32 0.2-0.74 0.2-1.060 0l-7.070-4.42c-0.25-0.16-0.4-0.43-0.4-0.72 0-0.67 0.73-1.070 1.3-0.72l6.7 4.19 6.7-4.19c0.57-0.35 1.3 0.050 1.3 0.72 0 0.29-0.15 0.56-0.4 0.72z"></path>
</symbol>
<symbol id="icon-phone" viewBox="0 0 24 32">
<path d="M19.635 18.487l-2.451-0.28c-0.589-0.067-1.167 0.135-1.582 0.55l-1.775 1.775c-2.731-1.389-4.969-3.618-6.359-6.359l1.785-1.785c0.415-0.415 0.618-0.994 0.55-1.582l-0.28-2.432c-0.116-0.975-0.936-1.708-1.92-1.708h-1.669c-1.090 0-1.997 0.907-1.93 1.997 0.511 8.24 7.102 14.821 15.332 15.332 1.090 0.068 1.997-0.839 1.997-1.93v-1.669c0.010-0.975-0.724-1.795-1.698-1.911z"></path>
</symbol>
<symbol id="icon-person" viewBox="0 0 32 32">
<path d="M16 16c2.947 0 5.333-2.387 5.333-5.333s-2.387-5.333-5.333-5.333c-2.947 0-5.333 2.387-5.333 5.333s2.387 5.333 5.333 5.333zM16 18.667c-3.56 0-10.667 1.787-10.667 5.333v1.333c0 0.733 0.6 1.333 1.333 1.333h18.667c0.733 0 1.333-0.6 1.333-1.333v-1.333c0-3.547-7.107-5.333-10.667-5.333z"></path>
</symbol>
<symbol id="icon-property" viewBox="0 0 40 32">
<path d="M33.782 1.020c0.691-0.662 1.611-1.027 2.565-1.020s1.869 0.387 2.55 1.059c0.681 0.672 1.076 1.584 1.101 2.543s-0.321 1.891-0.966 2.598l-19.578 24.617c-0.337 0.365-0.743 0.657-1.195 0.86s-0.939 0.312-1.434 0.322c-0.495 0.009-0.986-0.082-1.445-0.268s-0.876-0.463-1.226-0.815l-12.984-13.054c-0.362-0.339-0.652-0.747-0.853-1.201s-0.309-0.944-0.318-1.441 0.082-0.99 0.267-1.451c0.185-0.461 0.461-0.879 0.81-1.231s0.766-0.628 1.224-0.814 0.949-0.277 1.443-0.269c0.494 0.009 0.981 0.118 1.433 0.32s0.858 0.494 1.195 0.857l10.275 10.325 17.042-21.83c0.031-0.038 0.063-0.074 0.098-0.109h-0.005z"></path>
</symbol>
<symbol id="icon-bird" viewBox="0 0 32 32">
<path fill="#f4f4fd" style="fill: var(--color3, #f4f4fd)" d="M32 6.078c-1.19 0.522-2.458 0.868-3.78 1.036 1.36-0.812 2.398-2.088 2.886-3.626-1.268 0.756-2.668 1.29-4.16 1.588-1.204-1.282-2.92-2.076-4.792-2.076-3.632 0-6.556 2.948-6.556 6.562 0 0.52 0.044 1.020 0.152 1.496-5.454-0.266-10.28-2.88-13.522-6.862-0.566 0.982-0.898 2.106-0.898 3.316 0 2.272 1.17 4.286 2.914 5.452-1.054-0.020-2.088-0.326-2.964-0.808 0 0.020 0 0.046 0 0.072 0 3.188 2.274 5.836 5.256 6.446-0.534 0.146-1.116 0.216-1.72 0.216-0.42 0-0.844-0.024-1.242-0.112 0.85 2.598 3.262 4.508 6.13 4.57-2.232 1.746-5.066 2.798-8.134 2.798-0.538 0-1.054-0.024-1.57-0.090 2.906 1.874 6.35 2.944 10.064 2.944 12.072 0 18.672-10 18.672-18.668 0-0.29-0.010-0.57-0.024-0.848 1.302-0.924 2.396-2.078 3.288-3.406z"></path>
</symbol>
<symbol id="icon-facebook" viewBox="0 0 32 32">
<path fill="#f4f4fd" style="fill: var(--color3, #f4f4fd)" d="M21.329 5.313h2.921v-5.088c-0.504-0.069-2.237-0.225-4.256-0.225-4.212 0-7.097 2.649-7.097 7.519v4.481h-4.648v5.688h4.648v14.312h5.699v-14.311h4.46l0.708-5.688h-5.169v-3.919c0.001-1.644 0.444-2.769 2.735-2.769z"></path>
</symbol>
<symbol id="icon-in" viewBox="0 0 32 32">
<path fill="#f4f4fd" style="fill: var(--color3, #f4f4fd)" d="M31.992 32v-0.001h0.008v-11.736c0-5.741-1.236-10.164-7.948-10.164-3.227 0-5.392 1.771-6.276 3.449h-0.093v-2.913h-6.364v21.364h6.627v-10.579c0-2.785 0.528-5.479 3.977-5.479 3.399 0 3.449 3.179 3.449 5.657v10.401h6.62z"></path>
<path fill="#f4f4fd" style="fill: var(--color3, #f4f4fd)" d="M0.528 10.636h6.635v21.364h-6.635v-21.364z"></path>
<path fill="#f4f4fd" style="fill: var(--color3, #f4f4fd)" d="M3.843-0c-2.121 0-3.843 1.721-3.843 3.843s1.721 3.879 3.843 3.879c2.121 0 3.843-1.757 3.843-3.879-0.001-2.121-1.723-3.843-3.843-3.843v0z"></path>
</symbol>
<symbol id="icon-instagram" viewBox="0 0 32 32">
<path fill="#f4f4fd" style="fill: var(--color1, #f4f4fd)" d="M31.969 9.408c-0.075-1.7-0.35-2.869-0.744-3.882-0.406-1.075-1.031-2.038-1.85-2.838-0.8-0.813-1.769-1.444-2.832-1.844-1.019-0.394-2.182-0.669-3.882-0.744-1.713-0.081-2.257-0.1-6.601-0.1s-4.888 0.019-6.595 0.094c-1.7 0.075-2.869 0.35-3.882 0.744-1.075 0.406-2.038 1.031-2.838 1.85-0.813 0.8-1.444 1.769-1.844 2.832-0.394 1.019-0.669 2.182-0.744 3.882-0.081 1.713-0.1 2.257-0.1 6.601s0.019 4.888 0.094 6.595c0.075 1.7 0.35 2.869 0.744 3.882 0.406 1.075 1.038 2.038 1.85 2.838 0.8 0.813 1.769 1.444 2.832 1.844 1.019 0.394 2.182 0.669 3.882 0.744 1.706 0.075 2.25 0.094 6.595 0.094s4.888-0.019 6.595-0.094c1.7-0.075 2.869-0.35 3.882-0.744 2.151-0.831 3.851-2.532 4.682-4.682 0.394-1.019 0.669-2.182 0.744-3.882 0.075-1.707 0.094-2.25 0.094-6.595s-0.006-4.888-0.081-6.595zM29.087 22.473c-0.069 1.563-0.331 2.407-0.55 2.969-0.538 1.394-1.644 2.5-3.038 3.038-0.563 0.219-1.413 0.481-2.969 0.55-1.688 0.075-2.194 0.094-6.464 0.094s-4.782-0.019-6.464-0.094c-1.563-0.069-2.407-0.331-2.969-0.55-0.694-0.256-1.325-0.663-1.838-1.194-0.531-0.519-0.938-1.144-1.194-1.838-0.219-0.563-0.481-1.413-0.55-2.969-0.075-1.688-0.094-2.194-0.094-6.464s0.019-4.782 0.094-6.464c0.069-1.563 0.331-2.407 0.55-2.969 0.256-0.694 0.663-1.325 1.2-1.838 0.519-0.531 1.144-0.938 1.838-1.194 0.563-0.219 1.413-0.481 2.969-0.55 1.688-0.075 2.194-0.094 6.464-0.094 4.276 0 4.782 0.019 6.464 0.094 1.563 0.069 2.407 0.331 2.969 0.55 0.694 0.256 1.325 0.662 1.838 1.194 0.531 0.519 0.938 1.144 1.194 1.838 0.219 0.563 0.481 1.413 0.55 2.969 0.075 1.688 0.094 2.194 0.094 6.464s-0.019 4.77-0.094 6.458z"></path>
<path fill="#f4f4fd" style="fill: var(--color1, #f4f4fd)" d="M16.059 7.783c-4.538 0-8.22 3.682-8.22 8.22s3.682 8.22 8.22 8.22c4.538 0 8.22-3.682 8.22-8.22s-3.682-8.22-8.22-8.22zM16.059 21.335c-2.944 0-5.332-2.388-5.332-5.332s2.388-5.332 5.332-5.332c2.944 0 5.332 2.388 5.332 5.332s-2.388 5.332-5.332 5.332z"></path>
<path fill="#f4f4fd" style="fill: var(--color1, #f4f4fd)" d="M26.524 7.458c0 1.060-0.859 1.919-1.919 1.919s-1.919-0.859-1.919-1.919c0-1.060 0.859-1.919 1.919-1.919s1.919 0.859 1.919 1.919z"></path>
</symbol>
<symbol id="icon-astronaut" viewBox="0 0 32 32">
<path style="fill: var(--color1, #4d5ae5)" d="M32 4.5c-0.066-0.205-0.254-0.351-0.477-0.351-0.008 0-0.016 0-0.024 0.001l0.001-0-1.85-0.25-0.85-1.75c-0.2-0.35-0.8-0.35-1 0l-0.8 1.75-1.9 0.25c-0.276 0-0.5 0.224-0.5 0.5 0 0.163 0.078 0.308 0.199 0.399l0.001 0.001 1.4 1.35-0.35 1.9c-0.062 0.083-0.1 0.187-0.1 0.3 0 0.276 0.224 0.5 0.5 0.5 0.163 0 0.308-0.078 0.399-0.199l0.001-0.001 1.7-0.9 1.7 0.9c0.092 0.122 0.237 0.2 0.4 0.2 0.276 0 0.5-0.224 0.5-0.5 0-0.113-0.038-0.217-0.101-0.301l0.001 0.001-0.35-1.9 1.4-1.35c0.15-0.1 0.2-0.35 0.1-0.5zM29.5 5.85c-0.102 0.092-0.167 0.225-0.167 0.373 0 0.045 0.006 0.089 0.017 0.131l-0.001-0.003 0.2 1.1-1-0.5c-0.072-0.042-0.158-0.067-0.25-0.067s-0.178 0.025-0.252 0.068l0.002-0.001-1 0.5 0.2-1.15c0-0.15 0-0.35-0.15-0.45l-0.8-0.8 1.1-0.15c0.15 0 0.3-0.15 0.4-0.3l0.5-1 0.5 1c0.1 0.15 0.25 0.25 0.4 0.3l1.1 0.15-0.8 0.8zM26.15 20.5h-1.15v1.1h1.1v-1.1zM26.15 22.65h-1.15v1.050h1.1v-1zM27.2 21.6h-1.050v1.050h1.050v-1.050z"></path>
<path  style="fill: var(--color1, #4d5ae5)" d="M25.050 21.6h-1.050v1.050h1.050v-1.050zM22.4 26.4h-1.050v1.050h1.050v-1.050zM22.4 28.5h-1.050v1.1h1.050v-1.1zM23.5 27.5h-1.1v1h1.050v-1zM21.35 27.5h-1.1v1h1.1v-1zM16 24.25h-1.050v1.050h1.050v-1zM16 26.4h-1.050v1.050h1.050v-1.050zM17.050 25.3h-1.050v1.1h1.050v-1.1z"></path>
<path  style="fill: var(--color1, #4d5ae5)" d="M14.95 25.3h-1.1v1.1h1.15v-1.1zM5.85 6.1h-1.050v1.1h1.050v-1.1zM5.85 8.25h-1.050v1.050h1.050v-1zM6.95 7.2h-1.1v1.050h1.15v-1.050zM4.8 7.2h-1.050v1.050h1.050v-1.050z"></path>
<path style="fill: var(--color3, #2e2f42)" d="M24.7 14.15c-0.27-0.369-0.675-0.625-1.14-0.699l-0.010-0.001c-0.5-0.050-1 0.050-1.35 0.35l-1.25 1-1.9 1.4-1.35-0.55c2.392-1.133 4.016-3.527 4.016-6.3 0-3.809-3.064-6.902-6.862-6.949l-0.004-0c-3.826 0.052-6.908 3.166-6.908 6.999 0 1.371 0.394 2.65 1.075 3.729l-0.017-0.029h-2.8c-0.023-0.004-0.049-0.006-0.075-0.006s-0.052 0.002-0.078 0.006l0.003-0h-0.050l-3.25 1.6-1.9 0.9-0.050 0.050c-0.409 0.333-0.668 0.836-0.668 1.399 0 0.994 0.806 1.8 1.8 1.8 0.26 0 0.506-0.055 0.729-0.154l-0.011 0.005 1.35-0.7 2.3-1.15h1.35l-5.45 5.35-1.35 1.35c-0.304 0.299-0.492 0.715-0.492 1.175s0.188 0.876 0.491 1.175l0 0c0.299 0.304 0.715 0.492 1.175 0.492s0.876-0.188 1.175-0.491l0-0 1.35-1.3 1.7-1.3 0.9 0.9-3.1 3.1c-0.304 0.299-0.492 0.715-0.492 1.175s0.188 0.876 0.491 1.175l0 0c0.302 0.319 0.728 0.518 1.2 0.518s0.898-0.199 1.199-0.517l0.001-0.001 1.3-1.35 3.15-3.15 5.25-5.65 3.5 0.5c0.009 0.001 0.020 0.001 0.030 0.001 0.080 0 0.156-0.019 0.223-0.052l-0.003 0.001 0.1-0.050 3.2-2.15h0.1l1.2-1.25c0.336-0.327 0.545-0.784 0.545-1.29 0-0.398-0.129-0.767-0.349-1.065l0.003 0.005zM2.15 17.75c-0.2 0.1-0.4 0.15-0.6 0.050-0.294-0.087-0.505-0.355-0.505-0.672 0-0.239 0.12-0.45 0.302-0.576l0.002-0.002 1.3-0.55 0.35 0.9 0.1 0.4-1 0.5zM5.65 15.95l-1.55 0.8-0.3-0.75-0.15-0.5 2-1v1.45zM20.75 9.3c0 0.95-0.25 1.8-0.6 2.6l-4.2-1.9c0-0.6-0.35-1.1-0.8-1.4l1.5-4.85c2.35 0.75 4.1 3 4.1 5.55zM8.95 9.3c0.030-3.236 2.66-5.848 5.9-5.848 0.264 0 0.525 0.017 0.78 0.051l-0.030-0.003-1.5 4.75c-1 0-1.9 0.85-1.9 1.85-0.003 0.036-0.004 0.079-0.004 0.121 0 1.022 0.828 1.85 1.85 1.85 0.72 0 1.343-0.411 1.649-1.011l0.005-0.010 3.85 1.75c-1.089 1.424-2.788 2.334-4.7 2.334-3.235 0-5.862-2.604-5.9-5.83l-0-0.004zM14.9 10.1c0 0.5-0.35 0.8-0.8 0.8-0.5 0-0.8-0.35-0.8-0.8 0-0.4 0.35-0.8 0.8-0.8s0.8 0.4 0.8 0.8zM2.45 25.1c-0.2 0.3-0.6 0.3-0.85 0-0.095-0.106-0.153-0.246-0.153-0.4s0.058-0.294 0.153-0.401l-0 0.001 1-1 0.8 0.9-0.9 0.95zM5.7 28.9c-0.25 0.2-0.65 0.2-0.9 0-0.109-0.109-0.176-0.259-0.176-0.425s0.067-0.316 0.176-0.425l1-1 0.4 0.45 0.45 0.4-1 1zM9.2 25.4l-1.8 1.75-0.4-0.4-0.5-0.45 1.8-1.75 0.1-0.1v-0.050l0.050-0.15v-0.25c-0.025-0.058-0.059-0.108-0.1-0.15l-1.65-1.65h-0.050l-0.1-0.1h-0.5v0.050l-1.85 1.35-0.9-0.9 2.4-2.4 4.35 4.3-0.95 0.9zM16 18.4h-0.050c-0.022-0.003-0.046-0.005-0.072-0.005-0.083 0-0.162 0.020-0.231 0.056l0.003-0.001-0.1 0.1-4.75 5.15-4.3-4.2 2.8-2.8c0.195-0.073 0.331-0.258 0.331-0.475 0-0.28-0.227-0.506-0.506-0.506-0.063 0-0.123 0.011-0.178 0.032l0.004-0.001h-2.25v-1.55h3.15c1.265 1.305 3.034 2.115 4.992 2.115 0.445 0 0.88-0.042 1.301-0.122l-0.043 0.007 0.15 0.050 2.4 1 0.15 0.75 0.2 0.85-3-0.4zM20 18.55l-0.3-1.5 1.5-1.1 0.35 0.5 0.55 0.75-2.1 1.3zM23.75 15.75l-0.75 0.75-1-1.2 0.85-0.65c0.15-0.1 0.35-0.15 0.5-0.15 0.373 0.018 0.668 0.324 0.668 0.699 0 0.223-0.104 0.421-0.266 0.55l-0.001 0.001z"></path>
<path style="fill: var(--color3, #2e2f42)" d="M13.6 18.5l-2.15-2.1c-0.092-0.104-0.226-0.169-0.375-0.169s-0.283 0.065-0.375 0.169l-0 0.001-2.15 2.15c-0.104 0.092-0.169 0.226-0.169 0.375s0.065 0.283 0.169 0.375l0.001 0 2.15 2.15c0.092 0.104 0.226 0.169 0.375 0.169s0.283-0.065 0.375-0.169l0-0.001 2.15-2.15c0.104-0.092 0.169-0.226 0.169-0.375s-0.065-0.283-0.169-0.375l-0.001-0zM11.1 20.3l-1.4-1.4 1.4-1.35 1.35 1.35-1.35 1.4zM17.15 5.050l-0.25 1.050c0.1 0 1.75 0.5 1.75 2.15h1.050c0-2-1.65-3-2.5-3.2zM19.7 9.3h-1.050v1.1h1.050v-1.1z"></path>
</symbol>
<symbol id="icon-diagram" viewBox="0 0 32 32">
<path  style="fill: var(--color1, #4d5ae5)" d="M14.95 15h1v4.75h-1v-4.75zM19.2 17.1h1.050v2.65h-1.050v-2.65zM10.65 18.7h1.1v1.050h-1.1v-1.050zM7.5 18.15h1v1.6h-1v-1.6z"></path>
<path style="fill: var(--color3, #2e2f42)" d="M1.6 28.3h25.6c0.85 0 1.6-0.75 1.6-1.6v-2.2c0-0.85-0.75-1.6-1.6-1.6h-0.5v-13.25l3-2.85c0.202 0.099 0.441 0.158 0.692 0.158 0.884 0 1.6-0.716 1.6-1.6s-0.716-1.6-1.6-1.6c-0.884 0-1.6 0.716-1.6 1.6 0 0.252 0.058 0.49 0.162 0.702l-0.004-0.009-2.3 2.15v-1.25c0-0.85-0.7-1.6-1.6-1.6h-21.3c-0 0-0.001 0-0.001 0-0.884 0-1.6 0.716-1.6 1.6 0 0.018 0 0.035 0.001 0.053l-0-0.003v16h-0.55c-0 0-0 0-0.001 0-0.866 0-1.571 0.688-1.599 1.547l-0 0.003v2.15c0 0.85 0.7 1.6 1.6 1.6zM30.4 4.8c0.304 0 0.55 0.246 0.55 0.55s-0.246 0.55-0.55 0.55v0c-0.29 0-0.525-0.235-0.525-0.525s0.235-0.525 0.525-0.525v0zM3.2 7c0-0.3 0.25-0.5 0.5-0.5h21.35c0.3 0 0.5 0.2 0.5 0.5v2.25l-1 1v-2.15c0-0.3-0.25-0.55-0.55-0.55h-19.2c-0.276 0-0.5 0.224-0.5 0.5v0 13.35c0 0.3 0.2 0.5 0.5 0.5h19.2c0.3 0 0.5-0.2 0.5-0.5v-9.7l1.1-1v12.25h-22.4v-15.95zM8 13.9c-0.004-0-0.008-0-0.012-0-0.884 0-1.6 0.716-1.6 1.6s0.716 1.6 1.6 1.6c0.432 0 0.825-0.172 1.113-0.45l-0 0 1.85 0.95c0.2 0.1 0.5 0 0.65-0.15l3.9-4.45 3.85 2.9c0.2 0.2 0.5 0.15 0.7 0l3.35-3.2v8.15h-18.050v-12.35h18.1v2.7l-3.75 3.55-3.9-2.95c-0.088-0.078-0.204-0.126-0.332-0.126-0.174 0-0.328 0.089-0.417 0.224l-0.001 0.002-4 4.5-1.5-0.75v-0.15c0-0.9-0.65-1.6-1.55-1.6zM8.5 15.5c0 0.276-0.224 0.5-0.5 0.5s-0.5-0.224-0.5-0.5v0c0-0.276 0.224-0.5 0.5-0.5s0.5 0.224 0.5 0.5v0zM11.75 24h5.25v0.55c0 0.3-0.25 0.5-0.5 0.5h-4.3c-0.276 0-0.5-0.224-0.5-0.5v0-0.5zM1 24.6c0-0.3 0.25-0.5 0.55-0.5h9.050v0.5c0 0.9 0.75 1.6 1.6 1.6h4.3c0.9 0 1.6-0.7 1.6-1.6v-0.5h9.1c0.3 0 0.5 0.2 0.5 0.5v2.15c0 0.3-0.2 0.5-0.5 0.5h-25.6c-0.276 0-0.5-0.224-0.5-0.5v0-2.25z"></path>
</symbol>
<symbol id="icon-clock" viewBox="0 0 32 32">
<path style="fill: var(--color3, #2e2f42)" d="M31.3 15.3c0-0.007 0-0.015 0-0.023 0-8.45-6.85-15.3-15.3-15.3s-15.3 6.85-15.3 15.3c0 6.844 4.494 12.638 10.692 14.594l0.108 0.029c0.15 0 0.25 0 0.35-0.1 0.15-0.050 0.25-0.2 0.3-0.35l3.85-12.25c1.049-0.001 1.899-0.851 1.899-1.9s-0.851-1.9-1.9-1.9c-0.309 0-0.601 0.074-0.859 0.205l0.011-0.005-5.1-5.15c-0.1-0.067-0.224-0.106-0.356-0.106-0.359 0-0.65 0.291-0.65 0.65 0 0.133 0.040 0.256 0.108 0.359l-0.002-0.002 5.1 5.15c-0.113 0.236-0.179 0.512-0.179 0.804 0 0.606 0.283 1.145 0.725 1.493l0.004 0.003-3.7 11.65c-5.375-2.037-9.128-7.142-9.128-13.125 0-7.732 6.268-14 14-14s14 6.268 14 14c0 5.657-3.356 10.531-8.185 12.739l-0.087 0.036-0.4-1.85c-0.070-0.29-0.326-0.502-0.633-0.502-0.159 0-0.305 0.057-0.418 0.152l0.001-0.001-3.85 3.4c-0.129 0.119-0.21 0.289-0.21 0.478 0 0.291 0.191 0.538 0.455 0.62l0.005 0.001 4.85 1.6c0.046 0.012 0.099 0.018 0.154 0.018 0.359 0 0.65-0.291 0.65-0.65 0-0.024-0.001-0.048-0.004-0.071l0 0.003-0.4-1.85c5.539-2.368 9.35-7.77 9.35-14.062 0-0.013-0-0.026-0-0.040v0.002zM16 14.65c0.359 0 0.65 0.291 0.65 0.65s-0.291 0.65-0.65 0.65v0c-0.359 0-0.65-0.291-0.65-0.65s0.291-0.65 0.65-0.65v0zM18.1 29.55l2.2-2 0.6 2.85-2.8-0.85z"></path>
<path style="fill: var(--color1, #4d5ae5)" d="M15.35 3.2v1.25c0 0.359 0.291 0.65 0.65 0.65s0.65-0.291 0.65-0.65v-1.25c0-0.359-0.291-0.65-0.65-0.65s-0.65 0.291-0.65 0.65v0zM3.9 14.65c-0.359 0-0.65 0.291-0.65 0.65s0.291 0.65 0.65 0.65v0h1.25c0.359 0 0.65-0.291 0.65-0.65s-0.291-0.65-0.65-0.65v0h-1.25zM28.1 15.95c0.359 0 0.65-0.291 0.65-0.65s-0.291-0.65-0.65-0.65v0h-1.25c-0.359 0-0.65 0.291-0.65 0.65s0.291 0.65 0.65 0.65v0h1.25z"></path>
</symbol>
<symbol id="icon-telegram" viewBox="0 0 32 32">
<path fill="#fff" style="fill: var(--color1, #fff)" d="M32 2.667l-32 15 10.227 3.156 15.773-12.323-11.998 13.488 0.010 0.003-0.012-0.003v7.345l5.735-5.576 7.265 2.242 5-23.333z"></path>
</symbol>
<symbol id="icon-antenna" viewBox="0 0 32 32">
<path style="fill: var(--color3, #2e2f42)" d="M30.75 22.1l-8.4-8.5 0.9-4.6 0.8 0.1c0.004 0 0.010 0 0.015 0 1.187 0 2.15-0.963 2.15-2.15s-0.963-2.15-2.15-2.15c-1.187 0-2.15 0.963-2.15 2.15 0 0.269 0.050 0.527 0.14 0.765l-0.005-0.015-5 0.6-8.050-8.15c-0.089-0.091-0.213-0.148-0.35-0.15h-0c-0.012-0.001-0.027-0.002-0.041-0.002-0.141 0-0.268 0.058-0.359 0.152l-1.5 1.5c-0.104 0.092-0.169 0.226-0.169 0.375s0.065 0.283 0.169 0.375l0.001 0 0.75 0.85c-1.122 2.047-1.781 4.485-1.781 7.077 0 4.179 1.715 7.958 4.479 10.671l0.002 0.002-0.050 0.5v6.25h-6.4c-1.5 0-2.7 1.2-2.7 2.65v1.050c0 0.3 0.25 0.55 0.55 0.55h24.5c0.35 0 0.55-0.25 0.55-0.5v-1.1c0-1.5-1.15-2.65-2.65-2.65h-6.4v-2.75c0.895 0.19 1.924 0.299 2.978 0.299 2.609 0 5.063-0.666 7.2-1.838l-0.078 0.039 0.8 0.85c0.1 0.1 0.25 0.15 0.4 0.15s0.25 0 0.35-0.15l1.5-1.5c0.25-0.2 0.25-0.5 0-0.75zM23.25 6.25c0.189-0.184 0.448-0.298 0.733-0.298 0.58 0 1.050 0.47 1.050 1.050 0 0.556-0.432 1.011-0.979 1.048l-0.003 0c-0.005 0-0.010 0-0.015 0-0.58 0-1.050-0.47-1.050-1.050 0-0.294 0.121-0.559 0.315-0.75l0-0zM22 9.75l-0.5 2.95-1.25-1.2 1.75-1.75zM21.4 8.85l-1.9 1.9-1.5-1.5 3.4-0.4zM24 28.8c0.9 0 1.6 0.7 1.6 1.6v0.5h-23.5v-0.5c0-0.9 0.75-1.6 1.65-1.6h20.25zM16.5 26.65v1.1h-5.25v-1.1h5.35zM11.2 25.6v-4.050c0-1.3 1.2-2.35 2.65-2.35 1.5 0 2.7 1.050 2.7 2.35v4.050h-5.35zM17.6 23.9v-2.35c0-1.9-1.65-3.4-3.75-3.4-0.015-0-0.033-0-0.050-0-1.338 0-2.514 0.691-3.191 1.736l-0.009 0.015c-2.363-2.48-3.817-5.844-3.817-9.548 0-2.3 0.561-4.47 1.553-6.379l-0.036 0.077 18.6 18.7c-2.85 1.45-6.15 1.85-9.3 1.15zM28.9 23.2l-0.75-0.7-19.55-19.7-0.75-0.8 0.75-0.75 7.95 8 13.1 13.15-0.75 0.75z"></path>
<path style="fill: var(--color1, #4d5ae5)" d="M13.9 20.25c-0.884 0-1.6 0.716-1.6 1.6s0.716 1.6 1.6 1.6v0c0.884 0 1.6-0.716 1.6-1.6s-0.716-1.6-1.6-1.6v0zM14.25 22.25c-0.078 0.053-0.175 0.085-0.279 0.085-0.276 0-0.5-0.224-0.5-0.5 0-0.233 0.16-0.429 0.376-0.484l0.003-0.001c0.036-0.009 0.078-0.015 0.121-0.015 0.276 0 0.5 0.224 0.5 0.5 0 0.172-0.087 0.324-0.219 0.414l-0.002 0.001z"></path>
</symbol>
</defs>
</svg>
